<svg width="772" height="781" viewBox="0 0 772 781" fill="none" xmlns="http://www.w3.org/2000/svg">
<path fill-rule="evenodd" clip-rule="evenodd" d="M562 325L572 325C572 222.275 488.725 139 386 139L386 149C483.202 149 562 227.798 562 325Z" fill="#04BFAD"/>
<g filter="url(#filter0_d)">
<circle cx="386" cy="325" r="186" transform="rotate(-180 386 325)" fill="#021F59"/>
<circle cx="386" cy="325" r="181" transform="rotate(-180 386 325)" stroke="#04BFAD" stroke-width="10"/>
</g>
<path d="M364.301 410C361.566 410 360.199 408.633 360.199 405.898V404.609L362.426 403.555H362.543V405.898C362.543 407.227 363.129 407.891 364.301 407.891H367.934C369.105 407.891 369.691 407.227 369.691 405.898V403.438C369.691 402.109 369.105 401.445 367.934 401.445H364.77C362.426 401.445 361.254 400.273 361.254 397.93V395.82C361.254 393.477 362.426 392.305 364.77 392.305H367.465C369.809 392.305 370.98 393.477 370.98 395.82V396.441L368.754 397.496H368.637V395.82C368.637 394.883 368.246 394.414 367.465 394.414H364.77C363.988 394.414 363.598 394.883 363.598 395.82V397.93C363.598 398.867 363.988 399.336 364.77 399.336H367.934C370.668 399.336 372.035 400.703 372.035 403.438V405.898C372.035 408.633 370.668 410 367.934 410H364.301ZM377.215 410.469V399.242H374.203V399.125L375.152 397.109H377.215V392.891L379.441 391.836H379.559V397.109H382.57V397.227L381.621 399.242H379.559V409.414L377.332 410.469H377.215ZM387.551 407.891H390.012C390.793 407.891 391.184 407.422 391.184 406.484V404.879C391.184 403.941 390.793 403.473 390.012 403.473H387.551C386.77 403.473 386.379 403.941 386.379 404.879V406.484C386.379 407.422 386.77 407.891 387.551 407.891ZM387.551 410C385.207 410 384.035 408.828 384.035 406.484V404.879C384.035 402.535 385.207 401.363 387.551 401.363H390.012C390.418 401.363 390.809 401.48 391.184 401.715V400.625C391.184 399.688 390.793 399.219 390.012 399.219H385.816V399.102L386.754 397.109H390.012C392.355 397.109 393.527 398.281 393.527 400.625V409.414L391.301 410.469H391.184V409.648C390.887 409.883 390.496 410 390.012 410H387.551ZM397.043 410.469V400.625C397.043 398.281 398.215 397.109 400.559 397.109H403.488V397.227L402.551 399.219H400.559C399.777 399.219 399.387 399.688 399.387 400.625V409.414L397.16 410.469H397.043ZM407.027 410.469V399.242H404.016V399.125L404.965 397.109H407.027V392.891L409.254 391.836H409.371V397.109H412.383V397.227L411.434 399.242H409.371V409.414L407.145 410.469H407.027Z" fill="white"/>
<path d="M358.324 412.379H412.676V413.809H358.324V412.379Z" fill="white"/>
<path d="M281.508 338.605H289.076C291.518 338.605 292.738 337.222 292.738 334.455V314.68C292.738 311.913 291.518 310.529 289.076 310.529H281.508C279.066 310.529 277.846 311.913 277.846 314.68V334.455C277.846 337.222 279.066 338.605 281.508 338.605ZM281.508 343C275.811 343 272.963 340.152 272.963 334.455V314.68C272.963 308.983 275.811 306.135 281.508 306.135H289.076C294.773 306.135 297.621 308.983 297.621 314.68V334.455C297.621 340.152 294.773 343 289.076 343H281.508ZM315.932 338.605H323.5C325.941 338.605 327.162 337.222 327.162 334.455V314.68C327.162 311.913 325.941 310.529 323.5 310.529H315.932C313.49 310.529 312.27 311.913 312.27 314.68V334.455C312.27 337.222 313.49 338.605 315.932 338.605ZM315.932 343C310.235 343 307.387 340.152 307.387 334.455V314.68C307.387 308.983 310.235 306.135 315.932 306.135H323.5C329.197 306.135 332.045 308.983 332.045 314.68V334.455C332.045 340.152 329.197 343 323.5 343H315.932ZM342.177 326.716C341.607 326.13 341.322 325.43 341.322 324.616C341.322 323.786 341.607 323.078 342.177 322.492C342.746 321.906 343.438 321.613 344.252 321.613C345.066 321.613 345.757 321.906 346.327 322.492C346.897 323.078 347.182 323.786 347.182 324.616C347.182 325.43 346.897 326.13 346.327 326.716C345.757 327.302 345.066 327.595 344.252 327.595C343.438 327.595 342.746 327.302 342.177 326.716ZM342.177 342.609C341.607 342.023 341.322 341.324 341.322 340.51C341.322 339.68 341.607 338.972 342.177 338.386C342.746 337.8 343.438 337.507 344.252 337.507C345.066 337.507 345.757 337.8 346.327 338.386C346.897 338.972 347.182 339.68 347.182 340.51C347.182 341.324 346.897 342.023 346.327 342.609C345.757 343.195 345.066 343.488 344.252 343.488C343.438 343.488 342.746 343.195 342.177 342.609ZM365.004 338.605H372.572C375.014 338.605 376.234 337.222 376.234 334.455V314.68C376.234 311.913 375.014 310.529 372.572 310.529H365.004C362.562 310.529 361.342 311.913 361.342 314.68V334.455C361.342 337.222 362.562 338.605 365.004 338.605ZM365.004 343C359.307 343 356.459 340.152 356.459 334.455V314.68C356.459 308.983 359.307 306.135 365.004 306.135H372.572C378.269 306.135 381.117 308.983 381.117 314.68V334.455C381.117 340.152 378.269 343 372.572 343H365.004ZM399.428 338.605H406.996C409.438 338.605 410.658 337.222 410.658 334.455V314.68C410.658 311.913 409.438 310.529 406.996 310.529H399.428C396.986 310.529 395.766 311.913 395.766 314.68V334.455C395.766 337.222 396.986 338.605 399.428 338.605ZM399.428 343C393.731 343 390.883 340.152 390.883 334.455V314.68C390.883 308.983 393.731 306.135 399.428 306.135H406.996C412.693 306.135 415.541 308.983 415.541 314.68V334.455C415.541 340.152 412.693 343 406.996 343H399.428ZM425.673 326.716C425.103 326.13 424.818 325.43 424.818 324.616C424.818 323.786 425.103 323.078 425.673 322.492C426.243 321.906 426.934 321.613 427.748 321.613C428.562 321.613 429.254 321.906 429.823 322.492C430.393 323.078 430.678 323.786 430.678 324.616C430.678 325.43 430.393 326.13 429.823 326.716C429.254 327.302 428.562 327.595 427.748 327.595C426.934 327.595 426.243 327.302 425.673 326.716ZM425.673 342.609C425.103 342.023 424.818 341.324 424.818 340.51C424.818 339.68 425.103 338.972 425.673 338.386C426.243 337.8 426.934 337.507 427.748 337.507C428.562 337.507 429.254 337.8 429.823 338.386C430.393 338.972 430.678 339.68 430.678 340.51C430.678 341.324 430.393 342.023 429.823 342.609C429.254 343.195 428.562 343.488 427.748 343.488C426.934 343.488 426.243 343.195 425.673 342.609ZM448.5 338.605H456.068C458.51 338.605 459.73 337.222 459.73 334.455V314.68C459.73 311.913 458.51 310.529 456.068 310.529H448.5C446.059 310.529 444.838 311.913 444.838 314.68V334.455C444.838 337.222 446.059 338.605 448.5 338.605ZM448.5 343C442.803 343 439.955 340.152 439.955 334.455V314.68C439.955 308.983 442.803 306.135 448.5 306.135H456.068C461.765 306.135 464.613 308.983 464.613 314.68V334.455C464.613 340.152 461.765 343 456.068 343H448.5ZM482.924 338.605H490.492C492.934 338.605 494.154 337.222 494.154 334.455V314.68C494.154 311.913 492.934 310.529 490.492 310.529H482.924C480.482 310.529 479.262 311.913 479.262 314.68V334.455C479.262 337.222 480.482 338.605 482.924 338.605ZM482.924 343C477.227 343 474.379 340.152 474.379 334.455V314.68C474.379 308.983 477.227 306.135 482.924 306.135H490.492C496.189 306.135 499.037 308.983 499.037 314.68V334.455C499.037 340.152 496.189 343 490.492 343H482.924Z" fill="white"/>
<rect x="175" y="572" width="422" height="208" rx="7" fill="#021F59" stroke="#0A4273" stroke-width="2"/>
<g filter="url(#filter1_d)">
<path d="M162 577C162 572.582 165.582 569 170 569H602C606.418 569 610 572.582 610 577V643H162V577Z" fill="#021F59"/>
<path d="M163 577C163 573.134 166.134 570 170 570H602C605.866 570 609 573.134 609 577V642H163V577Z" stroke="#0A4273" stroke-width="2"/>
</g>
<path d="M597 773C597 776.866 593.866 780 590 780L182 780C178.134 780 175 776.866 175 773L175 712L597 712L597 773Z" fill="#021F59" stroke="#0A4273" stroke-width="2"/>
<path opacity="0.75" d="M203.094 615.469V600.094L200.234 601.664V599.262L205.32 596.836H205.438V614.414L203.211 615.469H203.094ZM210.125 615V614.883L211.074 612.867L216.688 607.43C218.562 605.586 219.5 604.215 219.5 603.316V601.406C219.5 600.078 218.914 599.414 217.742 599.414H214.344C213.172 599.414 212.586 600.078 212.586 601.406V602.695L210.359 603.75H210.242V601.406C210.242 598.672 211.609 597.305 214.344 597.305H217.742C220.477 597.305 221.844 598.672 221.844 601.406V603.434C221.844 604.918 220.84 606.547 218.832 608.32L213.898 612.867H222.113V612.984L221.164 615H210.125ZM226.52 607.184C226.246 606.902 226.109 606.566 226.109 606.176C226.109 605.777 226.246 605.438 226.52 605.156C226.793 604.875 227.125 604.734 227.516 604.734C227.906 604.734 228.238 604.875 228.512 605.156C228.785 605.438 228.922 605.777 228.922 606.176C228.922 606.566 228.785 606.902 228.512 607.184C228.238 607.465 227.906 607.605 227.516 607.605C227.125 607.605 226.793 607.465 226.52 607.184ZM226.52 614.812C226.246 614.531 226.109 614.195 226.109 613.805C226.109 613.406 226.246 613.066 226.52 612.785C226.793 612.504 227.125 612.363 227.516 612.363C227.906 612.363 228.238 612.504 228.512 612.785C228.785 613.066 228.922 613.406 228.922 613.805C228.922 614.195 228.785 614.531 228.512 614.812C228.238 615.094 227.906 615.234 227.516 615.234C227.125 615.234 226.793 615.094 226.52 614.812ZM237.477 612.891H241.109C242.281 612.891 242.867 612.227 242.867 610.898V601.406C242.867 600.078 242.281 599.414 241.109 599.414H237.477C236.305 599.414 235.719 600.078 235.719 601.406V610.898C235.719 612.227 236.305 612.891 237.477 612.891ZM237.477 615C234.742 615 233.375 613.633 233.375 610.898V601.406C233.375 598.672 234.742 597.305 237.477 597.305H241.109C243.844 597.305 245.211 598.672 245.211 601.406V610.898C245.211 613.633 243.844 615 241.109 615H237.477ZM254 612.891H257.633C258.805 612.891 259.391 612.227 259.391 610.898V601.406C259.391 600.078 258.805 599.414 257.633 599.414H254C252.828 599.414 252.242 600.078 252.242 601.406V610.898C252.242 612.227 252.828 612.891 254 612.891ZM254 615C251.266 615 249.898 613.633 249.898 610.898V601.406C249.898 598.672 251.266 597.305 254 597.305H257.633C260.367 597.305 261.734 598.672 261.734 601.406V610.898C261.734 613.633 260.367 615 257.633 615H254Z" fill="white"/>
<path opacity="0.75" d="M216.445 681.891H220.078C221.25 681.891 221.836 681.227 221.836 679.898V670.406C221.836 669.078 221.25 668.414 220.078 668.414H216.445C215.273 668.414 214.688 669.078 214.688 670.406V679.898C214.688 681.227 215.273 681.891 216.445 681.891ZM216.445 684C213.711 684 212.344 682.633 212.344 679.898V670.406C212.344 667.672 213.711 666.305 216.445 666.305H220.078C222.812 666.305 224.18 667.672 224.18 670.406V679.898C224.18 682.633 222.812 684 220.078 684H216.445ZM229.617 684.469V669.094L226.758 670.664V668.262L231.844 665.836H231.961V683.414L229.734 684.469H229.617ZM237.41 676.184C237.137 675.902 237 675.566 237 675.176C237 674.777 237.137 674.438 237.41 674.156C237.684 673.875 238.016 673.734 238.406 673.734C238.797 673.734 239.129 673.875 239.402 674.156C239.676 674.438 239.812 674.777 239.812 675.176C239.812 675.566 239.676 675.902 239.402 676.184C239.129 676.465 238.797 676.605 238.406 676.605C238.016 676.605 237.684 676.465 237.41 676.184ZM237.41 683.812C237.137 683.531 237 683.195 237 682.805C237 682.406 237.137 682.066 237.41 681.785C237.684 681.504 238.016 681.363 238.406 681.363C238.797 681.363 239.129 681.504 239.402 681.785C239.676 682.066 239.812 682.406 239.812 682.805C239.812 683.195 239.676 683.531 239.402 683.812C239.129 684.094 238.797 684.234 238.406 684.234C238.016 684.234 237.684 684.094 237.41 683.812ZM248.367 681.891H252C253.172 681.891 253.758 681.227 253.758 679.898V670.406C253.758 669.078 253.172 668.414 252 668.414H248.367C247.195 668.414 246.609 669.078 246.609 670.406V679.898C246.609 681.227 247.195 681.891 248.367 681.891ZM248.367 684C245.633 684 244.266 682.633 244.266 679.898V670.406C244.266 667.672 245.633 666.305 248.367 666.305H252C254.734 666.305 256.102 667.672 256.102 670.406V679.898C256.102 682.633 254.734 684 252 684H248.367ZM260.203 684V683.883L261.152 681.867L266.766 676.43C268.641 674.586 269.578 673.215 269.578 672.316V670.406C269.578 669.078 268.992 668.414 267.82 668.414H264.422C263.25 668.414 262.664 669.078 262.664 670.406V671.695L260.438 672.75H260.32V670.406C260.32 667.672 261.688 666.305 264.422 666.305H267.82C270.555 666.305 271.922 667.672 271.922 670.406V672.434C271.922 673.918 270.918 675.547 268.91 677.32L263.977 681.867H272.191V681.984L271.242 684H260.203ZM276.598 676.184C276.324 675.902 276.188 675.566 276.188 675.176C276.188 674.777 276.324 674.438 276.598 674.156C276.871 673.875 277.203 673.734 277.594 673.734C277.984 673.734 278.316 673.875 278.59 674.156C278.863 674.438 279 674.777 279 675.176C279 675.566 278.863 675.902 278.59 676.184C278.316 676.465 277.984 676.605 277.594 676.605C277.203 676.605 276.871 676.465 276.598 676.184ZM276.598 683.812C276.324 683.531 276.188 683.195 276.188 682.805C276.188 682.406 276.324 682.066 276.598 681.785C276.871 681.504 277.203 681.363 277.594 681.363C277.984 681.363 278.316 681.504 278.59 681.785C278.863 682.066 279 682.406 279 682.805C279 683.195 278.863 683.531 278.59 683.812C278.316 684.094 277.984 684.234 277.594 684.234C277.203 684.234 276.871 684.094 276.598 683.812ZM287.555 681.891H291.188C292.359 681.891 292.945 681.227 292.945 679.898V670.406C292.945 669.078 292.359 668.414 291.188 668.414H287.555C286.383 668.414 285.797 669.078 285.797 670.406V679.898C285.797 681.227 286.383 681.891 287.555 681.891ZM287.555 684C284.82 684 283.453 682.633 283.453 679.898V670.406C283.453 667.672 284.82 666.305 287.555 666.305H291.188C293.922 666.305 295.289 667.672 295.289 670.406V679.898C295.289 682.633 293.922 684 291.188 684H287.555ZM304.078 681.891H307.711C308.883 681.891 309.469 681.227 309.469 679.898V670.406C309.469 669.078 308.883 668.414 307.711 668.414H304.078C302.906 668.414 302.32 669.078 302.32 670.406V679.898C302.32 681.227 302.906 681.891 304.078 681.891ZM304.078 684C301.344 684 299.977 682.633 299.977 679.898V670.406C299.977 667.672 301.344 666.305 304.078 666.305H307.711C310.445 666.305 311.812 667.672 311.812 670.406V679.898C311.812 682.633 310.445 684 307.711 684H304.078Z" fill="white"/>
<path opacity="0.75" d="M216.445 751.891H220.078C221.25 751.891 221.836 751.227 221.836 749.898V740.406C221.836 739.078 221.25 738.414 220.078 738.414H216.445C215.273 738.414 214.688 739.078 214.688 740.406V749.898C214.688 751.227 215.273 751.891 216.445 751.891ZM216.445 754C213.711 754 212.344 752.633 212.344 749.898V740.406C212.344 737.672 213.711 736.305 216.445 736.305H220.078C222.812 736.305 224.18 737.672 224.18 740.406V749.898C224.18 752.633 222.812 754 220.078 754H216.445ZM232.969 751.891H236.602C237.773 751.891 238.359 751.227 238.359 749.898V740.406C238.359 739.078 237.773 738.414 236.602 738.414H232.969C231.797 738.414 231.211 739.078 231.211 740.406V749.898C231.211 751.227 231.797 751.891 232.969 751.891ZM232.969 754C230.234 754 228.867 752.633 228.867 749.898V740.406C228.867 737.672 230.234 736.305 232.969 736.305H236.602C239.336 736.305 240.703 737.672 240.703 740.406V749.898C240.703 752.633 239.336 754 236.602 754H232.969ZM245.566 746.184C245.293 745.902 245.156 745.566 245.156 745.176C245.156 744.777 245.293 744.438 245.566 744.156C245.84 743.875 246.172 743.734 246.562 743.734C246.953 743.734 247.285 743.875 247.559 744.156C247.832 744.438 247.969 744.777 247.969 745.176C247.969 745.566 247.832 745.902 247.559 746.184C247.285 746.465 246.953 746.605 246.562 746.605C246.172 746.605 245.84 746.465 245.566 746.184ZM245.566 753.812C245.293 753.531 245.156 753.195 245.156 752.805C245.156 752.406 245.293 752.066 245.566 751.785C245.84 751.504 246.172 751.363 246.562 751.363C246.953 751.363 247.285 751.504 247.559 751.785C247.832 752.066 247.969 752.406 247.969 752.805C247.969 753.195 247.832 753.531 247.559 753.812C247.285 754.094 246.953 754.234 246.562 754.234C246.172 754.234 245.84 754.094 245.566 753.812ZM256.523 751.891H260.156C261.328 751.891 261.914 751.227 261.914 749.898V746.875C261.914 745.547 261.328 744.883 260.156 744.883H256.523C255.352 744.883 254.766 745.547 254.766 746.875V749.898C254.766 751.227 255.352 751.891 256.523 751.891ZM256.523 754C253.789 754 252.422 752.633 252.422 749.898V740.406C252.422 737.672 253.789 736.305 256.523 736.305H259.922C262.656 736.305 264.023 737.672 264.023 740.406V740.758L261.797 741.812H261.68V740.406C261.68 739.078 261.094 738.414 259.922 738.414H256.523C255.352 738.414 254.766 739.078 254.766 740.406V743.266C255.312 742.938 255.898 742.773 256.523 742.773H260.156C262.891 742.773 264.258 744.141 264.258 746.875V749.898C264.258 752.633 262.891 754 260.156 754H256.523ZM273.047 751.891H276.68C277.852 751.891 278.438 751.227 278.438 749.898V740.406C278.438 739.078 277.852 738.414 276.68 738.414H273.047C271.875 738.414 271.289 739.078 271.289 740.406V749.898C271.289 751.227 271.875 751.891 273.047 751.891ZM273.047 754C270.312 754 268.945 752.633 268.945 749.898V740.406C268.945 737.672 270.312 736.305 273.047 736.305H276.68C279.414 736.305 280.781 737.672 280.781 740.406V749.898C280.781 752.633 279.414 754 276.68 754H273.047Z" fill="white"/>
<g opacity="0.55">
<path d="M566.75 599.25H553.25V615.75H566.75V599.25Z" stroke="#F20732" stroke-width="2" stroke-linecap="round" stroke-linejoin="round"/>
<path d="M550.25 599.25H569.75" stroke="#F20732" stroke-width="2" stroke-linecap="round" stroke-linejoin="round"/>
<path d="M557.75 596.25H562.25" stroke="#F20732" stroke-width="2" stroke-linecap="round" stroke-linejoin="round"/>
<path d="M557.75 603V610.5" stroke="#F20732" stroke-width="2" stroke-linecap="round" stroke-linejoin="round"/>
<path d="M562.25 603V610.5" stroke="#F20732" stroke-width="2" stroke-linecap="round" stroke-linejoin="round"/>
</g>
<g opacity="0.55">
<path d="M556.75 668.25H543.25V684.75H556.75V668.25Z" stroke="#F20732" stroke-width="2" stroke-linecap="round" stroke-linejoin="round"/>
<path d="M540.25 668.25H559.75" stroke="#F20732" stroke-width="2" stroke-linecap="round" stroke-linejoin="round"/>
<path d="M547.75 665.25H552.25" stroke="#F20732" stroke-width="2" stroke-linecap="round" stroke-linejoin="round"/>
<path d="M547.75 672V679.5" stroke="#F20732" stroke-width="2" stroke-linecap="round" stroke-linejoin="round"/>
<path d="M552.25 672V679.5" stroke="#F20732" stroke-width="2" stroke-linecap="round" stroke-linejoin="round"/>
</g>
<g opacity="0.55">
<path d="M556.75 741.25H543.25V757.75H556.75V741.25Z" stroke="#F20732" stroke-width="2" stroke-linecap="round" stroke-linejoin="round"/>
<path d="M540.25 741.25H559.75" stroke="#F20732" stroke-width="2" stroke-linecap="round" stroke-linejoin="round"/>
<path d="M547.75 738.25H552.25" stroke="#F20732" stroke-width="2" stroke-linecap="round" stroke-linejoin="round"/>
<path d="M547.75 745V752.5" stroke="#F20732" stroke-width="2" stroke-linecap="round" stroke-linejoin="round"/>
<path d="M552.25 745V752.5" stroke="#F20732" stroke-width="2" stroke-linecap="round" stroke-linejoin="round"/>
</g>
<g opacity="0.65">
<path d="M525.19 605.886C525.19 605.383 524.787 604.975 524.291 604.975H518.792V599.484V599.484C518.792 598.979 518.383 598.57 517.878 598.57C517.374 598.57 516.964 598.979 516.964 599.484V605.882C516.964 606.387 517.374 606.796 517.878 606.796H524.292C524.787 606.796 525.19 606.389 525.19 605.886ZM527.934 605.88C527.934 611.434 523.433 615.936 517.88 615.936C512.327 615.936 507.826 611.434 507.826 605.88C507.826 600.326 512.327 595.824 517.88 595.824C523.433 595.824 527.934 600.326 527.934 605.88ZM529.76 605.88C529.76 599.319 524.441 594 517.88 594C511.319 594 506 599.319 506 605.88C506 612.441 511.319 617.76 517.88 617.76C524.441 617.76 529.76 612.441 529.76 605.88Z" fill="#04D9B2"/>
</g>
<g opacity="0.65">
<path d="M515.19 674.886C515.19 674.383 514.787 673.975 514.291 673.975H508.792V668.484V668.484C508.792 667.979 508.383 667.57 507.878 667.57C507.374 667.57 506.964 667.979 506.964 668.484V674.882C506.964 675.387 507.374 675.796 507.878 675.796H514.292C514.787 675.796 515.19 675.389 515.19 674.886ZM517.934 674.88C517.934 680.434 513.433 684.936 507.88 684.936C502.327 684.936 497.826 680.434 497.826 674.88C497.826 669.326 502.327 664.824 507.88 664.824C513.433 664.824 517.934 669.326 517.934 674.88ZM519.76 674.88C519.76 668.319 514.441 663 507.88 663C501.319 663 496 668.319 496 674.88C496 681.441 501.319 686.76 507.88 686.76C514.441 686.76 519.76 681.441 519.76 674.88Z" fill="#04D9B2"/>
</g>
<g opacity="0.65">
<path d="M515.19 747.886C515.19 747.383 514.787 746.975 514.291 746.975H508.792V741.484V741.484C508.792 740.979 508.383 740.57 507.878 740.57C507.374 740.57 506.964 740.979 506.964 741.484V747.882C506.964 748.387 507.374 748.796 507.878 748.796H514.292C514.787 748.796 515.19 748.389 515.19 747.886ZM517.934 747.88C517.934 753.434 513.433 757.936 507.88 757.936C502.327 757.936 497.826 753.434 497.826 747.88C497.826 742.326 502.327 737.824 507.88 737.824C513.433 737.824 517.934 742.326 517.934 747.88ZM519.76 747.88C519.76 741.319 514.441 736 507.88 736C501.319 736 496 741.319 496 747.88C496 754.441 501.319 759.76 507.88 759.76C514.441 759.76 519.76 754.441 519.76 747.88Z" fill="#04D9B2"/>
</g>
<path d="M542.812 169.855C542.649 169.855 542.485 169.821 542.331 169.753L530.009 164.281H526.188C525.532 164.281 525 163.75 525 163.094V152.866C525 152.21 525.532 151.678 526.188 151.678H530.009L542.331 146.207C542.699 146.043 543.123 146.078 543.46 146.297C543.796 146.516 544 146.891 544 147.292V168.667C544 169.069 543.796 169.444 543.46 169.663C543.264 169.79 543.039 169.855 542.812 169.855ZM527.375 161.906H530.26C530.426 161.906 530.59 161.941 530.742 162.009L541.625 166.841V149.119L530.742 153.951C530.59 154.018 530.426 154.053 530.26 154.053H527.375V161.906Z" fill="#04BFAD"/>
<path d="M553.141 172.251C552.678 172.251 552.238 171.978 552.047 171.525C551.791 170.921 552.074 170.224 552.678 169.969C557.505 167.927 560.625 163.221 560.625 157.98C560.625 152.78 557.539 148.088 552.764 146.028C552.162 145.768 551.884 145.069 552.144 144.467C552.403 143.865 553.102 143.584 553.705 143.848C559.352 146.283 563 151.831 563 157.98C563 164.178 559.312 169.742 553.603 172.156C553.452 172.22 553.295 172.251 553.141 172.251Z" fill="#04BFAD"/>
<path d="M552.017 167.561C551.592 167.561 551.181 167.333 550.968 166.931C550.66 166.352 550.88 165.633 551.459 165.325C554.183 163.877 555.875 161.062 555.875 157.98C555.875 154.898 554.183 152.084 551.459 150.635C550.88 150.327 550.66 149.608 550.968 149.03C551.275 148.45 551.995 148.229 552.573 148.538C556.075 150.4 558.25 154.018 558.25 157.98C558.25 161.942 556.075 165.561 552.573 167.422C552.396 167.516 552.205 167.561 552.017 167.561Z" fill="#04BFAD"/>
<path d="M547.562 163.62C546.907 163.62 546.375 163.089 546.375 162.433C546.375 161.777 546.907 161.245 547.562 161.245C549.363 161.245 550.828 159.781 550.828 157.98C550.828 156.179 549.363 154.714 547.562 154.714C546.907 154.714 546.375 154.182 546.375 153.527C546.375 152.871 546.907 152.339 547.562 152.339C550.673 152.339 553.203 154.87 553.203 157.98C553.203 161.09 550.673 163.62 547.562 163.62Z" fill="#04BFAD"/>
<path opacity="0.5" d="M521.588 184.197C520.623 183.92 519.92 183.58 519.479 183.178C519.041 182.771 518.822 182.271 518.822 181.678C518.822 181.006 519.09 180.451 519.625 180.014C520.164 179.572 520.863 179.352 521.723 179.352C522.309 179.352 522.83 179.465 523.287 179.691C523.748 179.918 524.104 180.23 524.354 180.629C524.607 181.027 524.734 181.463 524.734 181.936H523.604C523.604 181.42 523.439 181.016 523.111 180.723C522.783 180.426 522.32 180.277 521.723 180.277C521.168 180.277 520.734 180.4 520.422 180.646C520.113 180.889 519.959 181.227 519.959 181.66C519.959 182.008 520.105 182.303 520.398 182.545C520.695 182.783 521.197 183.002 521.904 183.201C522.615 183.4 523.17 183.621 523.568 183.863C523.971 184.102 524.268 184.381 524.459 184.701C524.654 185.021 524.752 185.398 524.752 185.832C524.752 186.523 524.482 187.078 523.943 187.496C523.404 187.91 522.684 188.117 521.781 188.117C521.195 188.117 520.648 188.006 520.141 187.783C519.633 187.557 519.24 187.248 518.963 186.857C518.689 186.467 518.553 186.023 518.553 185.527H519.684C519.684 186.043 519.873 186.451 520.252 186.752C520.635 187.049 521.145 187.197 521.781 187.197C522.375 187.197 522.83 187.076 523.146 186.834C523.463 186.592 523.621 186.262 523.621 185.844C523.621 185.426 523.475 185.104 523.182 184.877C522.889 184.646 522.357 184.42 521.588 184.197ZM525.742 184.771C525.742 184.15 525.863 183.592 526.105 183.096C526.352 182.6 526.691 182.217 527.125 181.947C527.562 181.678 528.061 181.543 528.619 181.543C529.482 181.543 530.18 181.842 530.711 182.439C531.246 183.037 531.514 183.832 531.514 184.824V184.9C531.514 185.518 531.395 186.072 531.156 186.564C530.922 187.053 530.584 187.434 530.143 187.707C529.705 187.98 529.201 188.117 528.631 188.117C527.771 188.117 527.074 187.818 526.539 187.221C526.008 186.623 525.742 185.832 525.742 184.848V184.771ZM526.832 184.9C526.832 185.604 526.994 186.168 527.318 186.594C527.646 187.02 528.084 187.232 528.631 187.232C529.182 187.232 529.619 187.018 529.943 186.588C530.268 186.154 530.43 185.549 530.43 184.771C530.43 184.076 530.264 183.514 529.932 183.084C529.604 182.65 529.166 182.434 528.619 182.434C528.084 182.434 527.652 182.646 527.324 183.072C526.996 183.498 526.832 184.107 526.832 184.9ZM536.787 187.373C536.365 187.869 535.746 188.117 534.93 188.117C534.254 188.117 533.738 187.922 533.383 187.531C533.031 187.137 532.854 186.555 532.85 185.785V181.66H533.934V185.756C533.934 186.717 534.324 187.197 535.105 187.197C535.934 187.197 536.484 186.889 536.758 186.271V181.66H537.842V188H536.811L536.787 187.373ZM540.52 181.66L540.555 182.457C541.039 181.848 541.672 181.543 542.453 181.543C543.793 181.543 544.469 182.299 544.48 183.811V188H543.396V183.805C543.393 183.348 543.287 183.01 543.08 182.791C542.877 182.572 542.559 182.463 542.125 182.463C541.773 182.463 541.465 182.557 541.199 182.744C540.934 182.932 540.727 183.178 540.578 183.482V188H539.494V181.66H540.52ZM545.852 184.777C545.852 183.805 546.082 183.023 546.543 182.434C547.004 181.84 547.607 181.543 548.354 181.543C549.096 181.543 549.684 181.797 550.117 182.305V179H551.201V188H550.205L550.152 187.32C549.719 187.852 549.115 188.117 548.342 188.117C547.607 188.117 547.008 187.816 546.543 187.215C546.082 186.613 545.852 185.828 545.852 184.859V184.777ZM546.936 184.9C546.936 185.619 547.084 186.182 547.381 186.588C547.678 186.994 548.088 187.197 548.611 187.197C549.299 187.197 549.801 186.889 550.117 186.271V183.359C549.793 182.762 549.295 182.463 548.623 182.463C548.092 182.463 547.678 182.668 547.381 183.078C547.084 183.488 546.936 184.096 546.936 184.9ZM562.598 184.01C562.598 184.846 562.457 185.576 562.176 186.201C561.895 186.822 561.496 187.297 560.98 187.625C560.465 187.953 559.863 188.117 559.176 188.117C558.504 188.117 557.908 187.953 557.389 187.625C556.869 187.293 556.465 186.822 556.176 186.213C555.891 185.6 555.744 184.891 555.736 184.086V183.471C555.736 182.65 555.879 181.926 556.164 181.297C556.449 180.668 556.852 180.188 557.371 179.855C557.895 179.52 558.492 179.352 559.164 179.352C559.848 179.352 560.449 179.518 560.969 179.85C561.492 180.178 561.895 180.656 562.176 181.285C562.457 181.91 562.598 182.639 562.598 183.471V184.01ZM561.479 183.459C561.479 182.447 561.275 181.672 560.869 181.133C560.463 180.59 559.895 180.318 559.164 180.318C558.453 180.318 557.893 180.59 557.482 181.133C557.076 181.672 556.867 182.422 556.855 183.383V184.01C556.855 184.99 557.061 185.762 557.471 186.324C557.885 186.883 558.453 187.162 559.176 187.162C559.902 187.162 560.465 186.898 560.863 186.371C561.262 185.84 561.467 185.08 561.479 184.092V183.459ZM565.141 181.66L565.176 182.457C565.66 181.848 566.293 181.543 567.074 181.543C568.414 181.543 569.09 182.299 569.102 183.811V188H568.018V183.805C568.014 183.348 567.908 183.01 567.701 182.791C567.498 182.572 567.18 182.463 566.746 182.463C566.395 182.463 566.086 182.557 565.82 182.744C565.555 182.932 565.348 183.178 565.199 183.482V188H564.115V181.66H565.141Z" fill="white"/>
<defs>
<filter id="filter0_d" x="0" y="-57" width="772" height="772" filterUnits="userSpaceOnUse" color-interpolation-filters="sRGB">
<feFlood flood-opacity="0" result="BackgroundImageFix"/>
<feColorMatrix in="SourceAlpha" type="matrix" values="0 0 0 0 0 0 0 0 0 0 0 0 0 0 0 0 0 0 127 0"/>
<feOffset dy="4"/>
<feGaussianBlur stdDeviation="100"/>
<feColorMatrix type="matrix" values="0 0 0 0 0 0 0 0 0 0.0784314 0 0 0 0 0.235294 0 0 0 0.5 0"/>
<feBlend mode="normal" in2="BackgroundImageFix" result="effect1_dropShadow"/>
<feBlend mode="normal" in="SourceGraphic" in2="effect1_dropShadow" result="shape"/>
</filter>
<filter id="filter1_d" x="146" y="557" width="480" height="106" filterUnits="userSpaceOnUse" color-interpolation-filters="sRGB">
<feFlood flood-opacity="0" result="BackgroundImageFix"/>
<feColorMatrix in="SourceAlpha" type="matrix" values="0 0 0 0 0 0 0 0 0 0 0 0 0 0 0 0 0 0 127 0"/>
<feOffset dy="4"/>
<feGaussianBlur stdDeviation="8"/>
<feColorMatrix type="matrix" values="0 0 0 0 0 0 0 0 0 0 0 0 0 0 0 0 0 0 0.16 0"/>
<feBlend mode="normal" in2="BackgroundImageFix" result="effect1_dropShadow"/>
<feBlend mode="normal" in="SourceGraphic" in2="effect1_dropShadow" result="shape"/>
</filter>
</defs>
</svg>
