<svg width="38" height="38" viewBox="0 0 38 38" fill="none" xmlns="http://www.w3.org/2000/svg">
  <path d="M17.8125 30.8547C17.649 30.8547 17.4849 30.8211 17.3307 30.7527L5.00861 25.2814H1.1875C0.531708 25.2814 0 24.7497 0 24.0939V13.8656C0 13.2098 0.531708 12.6781 1.1875 12.6781H5.00861L17.3307 7.20677C17.6989 7.04326 18.1227 7.07805 18.4596 7.29665C18.7965 7.51583 19 7.8904 19 8.29222V29.6672C19 30.069 18.7965 30.4436 18.4596 30.6628C18.2642 30.7898 18.0386 30.8547 17.8125 30.8547ZM2.375 22.9064H5.26025C5.42609 22.9064 5.59018 22.9411 5.7421 23.0084L16.625 27.8407V10.1187L5.7421 14.951C5.59018 15.0183 5.42609 15.0531 5.26025 15.0531H2.375V22.9064Z" fill="#04BFAD" />
  <path d="M28.141 33.2505C27.6783 33.2505 27.2382 32.978 27.0468 32.5252C26.7911 31.921 27.0741 31.224 27.6777 30.9689C32.5054 28.9273 35.6249 24.2208 35.6249 18.9797C35.6249 13.7797 32.539 9.08828 27.7641 7.02756C27.1616 6.76779 26.8839 6.06909 27.1442 5.46722C27.4028 4.86477 28.1021 4.58413 28.7046 4.84738C34.3516 7.28326 37.9999 12.8305 37.9999 18.9797C37.9999 25.1775 34.3116 30.7422 28.6031 33.156C28.4518 33.2198 28.2952 33.2505 28.141 33.2505Z" fill="#04BFAD" />
  <path d="M27.0174 28.5608C26.5923 28.5608 26.1812 28.3324 25.9679 27.9305C25.66 27.3519 25.8797 26.6329 26.459 26.325C29.183 24.8765 30.875 22.062 30.875 18.9796C30.875 15.8978 29.183 13.0833 26.459 11.6349C25.8797 11.327 25.66 10.608 25.9679 10.0293C26.2752 9.45006 26.9953 9.22914 27.5734 9.53819C31.075 11.3995 33.25 15.0176 33.25 18.9796C33.25 22.9422 31.075 26.5604 27.5734 28.4216C27.396 28.5162 27.2052 28.5608 27.0174 28.5608Z" fill="#04BFAD" />
  <path d="M22.5625 24.6204C21.9067 24.6204 21.375 24.0887 21.375 23.4329C21.375 22.7771 21.9067 22.2454 22.5625 22.2454C24.3635 22.2454 25.8281 20.7807 25.8281 18.9797C25.8281 17.1788 24.3635 15.7141 22.5625 15.7141C21.9067 15.7141 21.375 15.1824 21.375 14.5266C21.375 13.8708 21.9067 13.3391 22.5625 13.3391C25.6727 13.3391 28.2031 15.8695 28.2031 18.9797C28.2031 22.09 25.6727 24.6204 22.5625 24.6204Z" fill="#04BFAD" />
</svg>
