<svg width="38" height="38" viewBox="0 0 38 38" fill="none" xmlns="http://www.w3.org/2000/svg">
  <g clip-path="url(#clip0)">
    <path d="M3.6006 36C3.13732 36 2.67716 35.8 2.36153 35.4125C1.80216 34.7282 1.90294 33.7203 2.58732 33.161L31.3875 9.61186C32.0703 9.05171 33.0805 9.15249 33.6383 9.83764C34.1977 10.5212 34.0969 11.529 33.4125 12.0884L4.61233 35.6391C4.31545 35.8813 3.95686 36 3.6006 36Z" fill="#04BFAD" />
    <path d="M25.9998 36C25.7795 36 25.5584 35.9547 25.3506 35.8625L15.4709 31.4766C14.6631 31.1172 14.299 30.1719 14.6576 29.3657C15.017 28.5579 15.9654 28.1938 16.7693 28.5516L24.3998 31.9391V21.7626C24.3998 20.879 25.1162 20.1626 25.9998 20.1626C26.8834 20.1626 27.5998 20.879 27.5998 21.7626V34.4C27.5998 34.9422 27.3256 35.4469 26.8717 35.7422C26.6084 35.9125 26.3045 36 25.9998 36Z" fill="#04BFAD" />
    <path d="M11.4821 29.5547C11.2649 29.5547 11.0446 29.511 10.8336 29.4172L8.74848 28.4907H3.60001C2.71641 28.4907 2 27.775 2 26.8907V13.1095C2 12.2259 2.71641 11.5095 3.60001 11.5095H8.74848L25.3509 4.13765C25.847 3.91733 26.4189 3.96421 26.872 4.25874C27.3259 4.55405 27.6001 5.05874 27.6001 5.60014V16.0837C27.6001 16.9673 26.8837 17.6837 26.0001 17.6837C25.1165 17.6837 24.4001 16.9673 24.4001 16.0837V8.06107L9.73676 14.572C9.53207 14.6626 9.31098 14.7095 9.08754 14.7095H5.20002V25.2907H9.08754C9.31098 25.2907 9.53286 25.3375 9.73676 25.4282L12.1321 26.4922C12.9399 26.8516 13.304 27.7969 12.9454 28.6047C12.6805 29.2 12.0954 29.5547 11.4821 29.5547Z" fill="#04BFAD" />
  </g>
</svg>
